<svg width="16" height="16" viewBox="0 0 16 16" fill="none" xmlns="http://www.w3.org/2000/svg">
<g clip-path="url(#clip0_180_463)">
<path d="M12.5082 11.5016C12.6433 11.5027 12.7733 11.4502 12.8697 11.3556L15.8535 8.36421C15.9473 8.27042 15.9999 8.14335 15.9999 8.01077C15.9999 7.8782 15.9473 7.75099 15.8535 7.65721L12.8537 4.64996C12.7837 4.57942 12.6944 4.53126 12.597 4.51171C12.4996 4.49217 12.3985 4.50213 12.3068 4.54022C12.215 4.57832 12.1367 4.64281 12.0818 4.7256C12.0269 4.80839 11.9979 4.90574 11.9984 5.00509V6.30179H6.49891C6.36635 6.30208 6.2393 6.3549 6.14556 6.44864C6.05183 6.54237 5.99904 6.66938 5.99876 6.80194V8.84847C5.99876 9.12467 6.22271 9.34851 6.49891 9.34744H12.007V11.0037C12.008 11.2767 12.2267 11.4974 12.4997 11.5016H12.5082ZM4.5079 9.35929C4.78517 9.35929 5.00699 9.12886 5.00272 8.85159V6.80415C5.01125 6.12804 3.99389 6.12804 4.00242 6.80415V8.85159C4.00141 8.91853 4.01386 8.98508 4.03901 9.04712C4.06416 9.10916 4.10152 9.1655 4.14885 9.21284C4.19619 9.26018 4.25255 9.29756 4.3146 9.32271C4.37664 9.34786 4.4431 9.3603 4.51004 9.35929H4.5079ZM2.50837 9.35929C2.57417 9.35874 2.63922 9.34509 2.69972 9.31919C2.76022 9.2933 2.81498 9.25564 2.86082 9.20841C2.90665 9.16119 2.94265 9.10538 2.96673 9.04413C2.9908 8.98288 3.00247 8.91739 3.00105 8.85159V6.80415C3.00958 6.12804 1.99222 6.12804 2.00075 6.80415V8.85159C1.99974 8.91853 2.01219 8.98508 2.03734 9.04712C2.06249 9.10916 2.09985 9.1655 2.14718 9.21284C2.19452 9.26018 2.25088 9.29756 2.31293 9.32271C2.37497 9.34786 2.44143 9.3603 2.50837 9.35929ZM0.508829 9.35929C0.574637 9.35874 0.63968 9.34509 0.700184 9.31919C0.760687 9.2933 0.815446 9.25564 0.861281 9.20841C0.907116 9.16119 0.943115 9.10538 0.967188 9.04413C0.991262 8.98288 1.00293 8.91739 1.00152 8.85159V6.80415C1.00578 6.13231 -0.00518542 6.13231 -0.00091974 6.80415V8.85159C-0.00193019 8.91863 0.010545 8.98514 0.0357645 9.04725C0.0609839 9.10937 0.0984329 9.16588 0.145886 9.21323C0.193338 9.26058 0.249826 9.29788 0.311993 9.32297C0.374159 9.34806 0.441801 9.36044 0.508829 9.35929Z" fill="black"/>
</g>
<defs>
<clipPath id="clip0_180_463">
<rect width="16" height="16" fill="white"/>
</clipPath>
</defs>
</svg>
