<svg width="57" height="69" viewBox="0 0 57 69" fill="none" xmlns="http://www.w3.org/2000/svg">
<path d="M39.7594 34.4815C39.7594 29.675 41.4312 25.5999 44.7749 22.2562C48.1186 18.9126 52.1936 17.2407 57.0002 17.2407C52.1936 17.2407 48.1186 15.5689 44.7749 12.2253C41.4312 8.88159 39.7594 4.80651 39.7594 0C39.7594 4.80651 38.0876 8.88159 34.7439 12.2253C31.4003 15.5689 27.3252 17.2407 22.5187 17.2407C27.3252 17.2407 31.4003 18.9126 34.7439 22.2562C38.0876 25.5999 39.7594 29.675 39.7594 34.4815Z" fill="white"/>
<path d="M11.2593 50.6665C11.2593 47.5275 12.3511 44.8662 14.5347 42.6826C16.7183 40.499 19.3796 39.4072 22.5185 39.4072C19.3796 39.4072 16.7183 38.3154 14.5347 36.1318C12.3511 33.9482 11.2593 31.2869 11.2593 28.1479C11.2593 31.2869 10.1675 33.9482 7.98384 36.1318C5.80023 38.3154 3.13894 39.4072 0 39.4072C3.13894 39.4072 5.80023 40.499 7.98384 42.6826C10.1675 44.8662 11.2593 47.5275 11.2593 50.6665Z" fill="white"/>
<path d="M34.8332 68.2594C34.8332 66.0033 35.6179 64.0905 37.1874 62.521C38.7569 60.9515 40.6697 60.1668 42.9258 60.1668C40.6697 60.1668 38.7569 59.3821 37.1874 57.8126C35.6179 56.2431 34.8332 54.3303 34.8332 52.0742C34.8332 54.3303 34.0485 56.2431 32.479 57.8126C30.9095 59.3821 28.9967 60.1668 26.7406 60.1668C28.9967 60.1668 30.9095 60.9515 32.479 62.521C34.0485 64.0905 34.8332 66.0033 34.8332 68.2594Z" fill="white"/>
</svg>
