<svg width="92" height="89" viewBox="0 0 92 89" fill="none" xmlns="http://www.w3.org/2000/svg">
<path d="M70.8574 14.1547H70.5703H70.1109H69.4793L68.8477 14.327H68.3883H67.7567H67.1825L66.7231 14.4993H66.0915H65.4598L65.0005 14.6141H64.3689H63.9095L63.3353 14.7864H62.8759L62.2443 14.9586H61.7849L61.1533 15.0735H60.6939L60.2346 15.2457H59.6029L59.1435 15.418H58.6842L58.0526 15.5903L57.5932 15.7051H57.1338L56.6745 15.8774L56.1002 16.0496H55.6409L55.1241 16.1645L54.6647 16.3367L54.2054 16.509L53.6312 16.6238H53.1718L52.655 16.7961L52.1956 16.9684L51.7363 17.0832L51.2769 17.2555L50.8175 17.4277L50.3582 17.5426L49.8988 17.7148L49.4394 17.8871L48.9801 18.0019L48.5207 18.1742L48.0613 18.3465L47.7742 18.5187L47.3148 18.6336L46.8555 18.8058L46.3961 18.9781L45.9367 19.0929L45.5922 19.2652L45.1328 19.4375L44.6735 19.7246L44.2141 19.8968L43.927 20.0117L43.4676 20.1839L43.0083 20.471L42.6637 20.6433L42.2044 20.8156L41.745 20.9304L41.4579 21.2749L40.9985 21.3898L40.654 21.562L40.1946 21.8492L39.7353 22.0214L39.4482 22.3659L38.9888 22.4808L38.6443 22.653L38.1849 22.9401L37.8978 23.1124L37.6107 23.3995L37.1513 23.5718L36.8068 23.8589L36.3475 24.0311L36.0603 24.3182L35.7158 24.4905L35.2564 24.7776L34.9693 25.1221L34.6822 25.2944L34.2229 25.5815L33.8783 25.7538L33.5912 26.0409L33.3041 26.328L32.9596 26.5002L32.5002 26.7873L32.2131 27.1319L31.8686 27.2467L31.5815 27.5912L31.2944 27.8784L30.9499 28.1655L30.4905 28.3377L30.2034 28.6822L29.9163 28.9693L29.5718 29.2565L29.2847 29.601L28.9401 29.7158L28.653 30.0603L28.3659 30.3474L28.0214 30.6345L27.7343 30.9791L27.4472 31.2662L27.1027 31.5533L26.8156 31.8978L26.6433 32.1849L26.3562 32.5294L26.0691 32.8165L25.7246 33.1036L25.4375 33.2759L25.1504 33.563L24.8058 34.0224L24.6336 34.3669L24.3465 34.654L24.0594 34.9985L23.7148 35.2856L23.6 35.5728L23.2555 35.9173L22.9684 36.2044L22.7961 36.4915L22.509 36.836L22.2219 37.1231L22.0496 37.4102L21.7051 37.8696L21.418 38.2141L21.2457 38.5012L20.9586 38.7883L20.7864 39.1328L20.4993 39.42L20.2122 39.8793L20.0399 40.2239L19.7528 40.511L19.5805 40.7981L19.2934 41.2574L19.1212 41.6019L18.9489 41.8891L18.6618 42.2336L18.4895 42.6929L18.2024 42.98L18.0302 43.2672L17.7431 43.7265L17.5708 44.0711L17.3985 44.3582L17.1114 44.8175L16.9392 45.1046L16.8243 45.4492L16.4798 45.9085L16.365 46.1956L16.1927 46.5402L16.0204 46.9995L15.7333 47.2866L15.5611 47.746L15.4462 48.0331L15.274 48.3776L15.1017 48.837L14.8146 49.1241L14.6423 49.5835L14.4701 49.928L14.3552 50.3874L14.183 50.6745L14.0107 50.9616L13.8959 51.4209L13.5513 51.7655L13.4365 52.2248L13.2642 52.5119L13.092 52.9713L12.9771 53.3158L12.8049 53.7752L12.6326 54.0623L12.5178 54.5217L12.3455 54.8088L12.1732 55.2681L12.001 55.7849L11.8861 56.072L11.7139 56.5314V56.8185L11.5416 57.2779L11.4268 57.6224L11.2545 58.0818L11.0822 58.3689L10.9674 58.8282L10.7951 59.2876V59.6321L10.6229 60.0915L10.508 60.3786L10.3358 60.838L10.1635 61.2973V61.5844L10.0487 62.0438L9.8764 62.3883L9.70413 62.8477V63.3071L9.58929 63.5942L9.41703 64.0535V64.5129L9.24476 64.8574L9.12992 65.3168V65.6039L8.95766 66.0633L8.7854 66.5226V66.8672L8.67056 67.3265V67.7859L8.4983 68.073V68.5324L8.32603 68.9917V69.3363L8.15377 69.7956L8.03893 70.255V70.5421V71.0015L7.86667 71.2886V71.7479L7.6944 72.2647V72.5518L7.57956 73.0112V73.4706V73.7577L7.4073 74.217V74.6764L7.23503 75.0209V75.4803V75.9397L7.12019 76.2268V76.6861V77.1455L6.94793 77.49V77.9494V78.4088V78.6959L6.77567 79.1552V79.6146V79.9591V80.4185L6.66082 80.7056V81.165V81.6243V81.9114V82.4282V82.8876L6.48857 83.1747V83.6341V84.0934V84.3805V84.8399V85.1844V85.6438V86.1032V86.3903V86.8496V87.1942V87.6535V87.9406V88.4H0V87.9406V87.6535V87.1942V86.7348V86.2754V85.9309V85.4715V85.0122V84.5528V84.0934V83.8063V83.347L0.172265 82.8876V82.4282V82.0837V81.6243V81.165V80.7056L0.34452 80.2462V79.7869V79.4998V78.983L0.459369 78.5236V78.0642V77.6049V77.3178L0.631625 76.8584V76.399V75.9397L0.803889 75.4803V75.0209V74.6764L0.91873 74.217V73.7577L1.09099 73.2983V72.8389V72.3796L1.26326 72.0925V71.6331L1.3781 71.1737V70.7144L1.55036 70.255V69.7956L1.72263 69.4511V68.9917L1.89489 68.5324V68.073L2.00973 67.6136V67.1543L2.182 66.8672L2.35425 66.4078V65.9484L2.4691 65.4891L2.64136 64.9723V64.5129L2.81362 64.2258L2.92846 63.7664V63.3071L3.10073 62.8477L3.27299 62.3883V62.0438L3.38783 61.5844L3.5601 61.1251L3.73236 60.6657V60.2063L3.8472 59.9192L4.01946 59.4599L4.19173 59.0005L4.30657 58.5411L4.47883 58.0818L4.65109 57.7372V57.2779L4.76594 56.8185L4.93819 56.3591L5.11046 55.8998L5.2253 55.6127L5.39756 55.1533L5.56983 54.6939L5.74209 54.2346L5.85693 53.89L6.0292 53.4307L6.20146 52.9713L6.3163 52.5119L6.48857 52.2248L6.66082 51.7655L6.77567 51.3061L6.94793 50.9616L7.23503 50.5022L7.4073 50.0428L7.57956 49.5835L7.6944 49.2963L7.86667 48.837L8.03893 48.3776L8.32603 48.0331L8.4983 47.5737L8.67056 47.1144L8.7854 46.8273L9.12992 46.3679L9.24476 45.9085L9.41703 45.564L9.58929 45.1046L9.8764 44.6453L10.0487 44.3582L10.1635 43.8988L10.508 43.6117L10.6229 43.1523L10.9674 42.6929L11.0822 42.3484L11.2545 41.8891L11.5416 41.6019L11.7139 41.1426L12.001 40.7981L12.1732 40.3387L12.5178 40.0516L12.6326 39.5922L12.9771 39.1328L13.2642 38.7883L13.4365 38.329L13.7236 38.0419L13.8959 37.7547L14.183 37.2954L14.4701 36.9509L14.6423 36.4915L14.9294 36.2044L15.274 35.745L15.4462 35.4579L15.7333 34.9985L16.0204 34.654L16.365 34.3669L16.4798 33.9075L16.8243 33.563L17.1114 33.2759L17.3985 32.8165L17.7431 32.5294L18.0302 32.1849L18.3173 31.7256L18.4895 31.4384L18.8341 31.0939L19.1212 30.6345L19.4083 30.3474L19.7528 30.0603L20.0399 29.7158L20.327 29.2565L20.6715 28.9693L20.9586 28.6822L21.2457 28.3377L21.5903 28.0506L21.8774 27.5912L22.3367 27.2467L22.6813 26.9596L22.9684 26.6725L23.2555 26.328L23.6 26.0409L23.8871 25.7538L24.3465 25.4093L24.6336 25.1221L24.9781 24.6628L25.2652 24.3182L25.7246 24.0311L26.0691 23.744L26.3562 23.3995L26.8156 23.1124L27.1027 22.8253L27.4472 22.653L27.9066 22.3659L28.1937 22.0214L28.653 21.7343L28.9401 21.3898L29.4569 21.1027L29.744 20.8156L30.2034 20.471L30.4905 20.3562L30.9499 20.0117L31.2944 19.7246L31.7538 19.4375L32.0409 19.0929L32.5002 18.9781L32.9596 18.6336L33.3041 18.3465L33.7635 18.1742L34.2229 17.8871L34.51 17.5426L34.9693 17.4277L35.4287 17.0832L35.8881 16.9684L36.2326 16.6238L36.692 16.3367L37.1513 16.1645L37.6107 15.8774L38.0701 15.7051L38.5294 15.418L38.8165 15.2457L39.2759 14.9586L39.7353 14.7864L40.1946 14.6141L40.654 14.327L41.1134 14.1547L41.5727 13.8676L42.0895 13.6954L42.5489 13.5805L43.0083 13.4083L43.4676 13.1212L44.0419 12.9489L44.5012 12.7766L44.9606 12.6618L45.4199 12.3173L45.9367 12.2024L46.3961 12.0302L46.9703 11.8579L47.4297 11.7431L47.8891 11.5708L48.3484 11.3985L48.9801 11.2263L49.4394 11.1114L49.8988 10.9392L50.5304 10.7669L50.9898 10.6521L51.4491 10.4798L52.0808 10.3075L52.5401 10.1927L53.1718 10.0204L53.6312 9.84818H54.2054L54.6647 9.73333L55.2964 9.56107L55.7557 9.38881H56.3873L56.8467 9.27397L57.4783 9.10171L58.0526 8.92944H58.5119L59.1435 8.8146H59.7752L60.2346 8.64234H60.8662L61.4404 8.47008H61.8998L62.5314 8.29781H63.163L63.7946 8.18297H64.3689L65.0005 8.01071H65.4598H66.0915L66.7231 7.83844H67.2973H67.929H68.5606H69.1348L69.7664 7.7236H70.398H70.8574V0L91.635 10.9392L70.8574 21.8784V14.1547Z" fill="black"/>
</svg>
