<svg width="800" height="800" viewBox="0 0 800 800" fill="none" xmlns="http://www.w3.org/2000/svg">
<path d="M133.333 666.67H666.667M133.333 666.67V533.337L400 266.671M133.333 666.67H266.667L533.333 400.003M400 266.671L495.62 171.049L495.68 170.992C508.84 157.829 515.433 151.236 523.033 148.767C529.73 146.592 536.94 146.592 543.637 148.767C551.23 151.235 557.817 157.82 570.96 170.964L628.953 228.957C642.153 242.158 648.757 248.761 651.23 256.372C653.407 263.067 653.403 270.278 651.23 276.973C648.76 284.579 642.167 291.172 628.983 304.354L628.953 304.382L533.333 400.003M400 266.671L533.333 400.003" stroke="#E4E4E4" stroke-width="66.6667" stroke-linecap="round" stroke-linejoin="round"/>
</svg>
