<svg width="1320" height="142" viewBox="0 0 1320 142" fill="none" xmlns="http://www.w3.org/2000/svg">
<g clip-path="url(#clip0_180_435)">
<path d="M0 0H1320V142H0V0Z" fill="url(#paint0_linear_180_435)"/>
<path d="M1 0H1321V142H1V0Z" fill="url(#paint1_linear_180_435)" fill-opacity="0.3"/>
<path style="mix-blend-mode:multiply" d="M1 0H1321V142H1V0Z" fill="url(#paint2_linear_180_435)" fill-opacity="0.5"/>
<path d="M-11 0H1320.92V163.073H-11V0Z" fill="url(#paint3_linear_180_435)"/>
<path d="M-11 0H1320.92V163.073H-11V0Z" fill="url(#paint4_radial_180_435)" fill-opacity="0.94"/>
<path opacity="0.8" d="M0 0H1320V142H0V0Z" fill="#F8F8F8"/>
</g>
<defs>
<linearGradient id="paint0_linear_180_435" x1="660" y1="-10.2474" x2="659.478" y2="92.63" gradientUnits="userSpaceOnUse">
<stop stop-color="white" stop-opacity="0.8"/>
<stop offset="0.5" stop-color="#FBF9FF" stop-opacity="0.2"/>
<stop offset="1" stop-color="#F6F2FF" stop-opacity="0"/>
</linearGradient>
<linearGradient id="paint1_linear_180_435" x1="-107.28" y1="-25.1786" x2="1190.65" y2="381.937" gradientUnits="userSpaceOnUse">
<stop stop-color="#B5E1FF"/>
<stop offset="1" stop-color="#F1EBFF"/>
</linearGradient>
<linearGradient id="paint2_linear_180_435" x1="105.156" y1="108.275" x2="95.1713" y2="252.516" gradientUnits="userSpaceOnUse">
<stop stop-color="#BAE3FF" stop-opacity="0"/>
<stop offset="1" stop-color="#DFEEFF"/>
</linearGradient>
<linearGradient id="paint3_linear_180_435" x1="637.962" y1="174.926" x2="674.539" y2="-102.644" gradientUnits="userSpaceOnUse">
<stop stop-color="white" stop-opacity="0"/>
<stop offset="1" stop-color="white"/>
</linearGradient>
<radialGradient id="paint4_radial_180_435" cx="0" cy="0" r="1" gradientUnits="userSpaceOnUse" gradientTransform="translate(-50.8841 -14.4199) rotate(-58.2825) scale(184.071 1138.33)">
<stop stop-color="white"/>
<stop offset="1" stop-color="white" stop-opacity="0"/>
</radialGradient>
<clipPath id="clip0_180_435">
<rect width="1320" height="142" rx="15" transform="matrix(-1 0 0 1 1320 0)" fill="white"/>
</clipPath>
</defs>
</svg>
