<svg width="24" height="24" viewBox="0 0 24 24" fill="none" xmlns="http://www.w3.org/2000/svg">
<g clip-path="url(#clip0_180_688)">
<mask id="mask0_180_688" style="mask-type:luminance" maskUnits="userSpaceOnUse" x="0" y="0" width="24" height="24">
<path d="M24 0H0V24H24V0Z" fill="white"/>
</mask>
<g mask="url(#mask0_180_688)">
<path d="M12 2.16093C15.2063 2.16093 15.586 2.175 16.8469 2.23125C18.0188 2.28281 18.6516 2.47969 19.0735 2.64375C19.6313 2.85938 20.0344 3.12188 20.4515 3.53906C20.8734 3.96094 21.1313 4.35938 21.3469 4.91719C21.511 5.33905 21.7078 5.97655 21.7594 7.14375C21.8156 8.40935 21.8297 8.78905 21.8297 11.9907C21.8297 15.1969 21.8156 15.5765 21.7594 16.8375C21.7078 18.0094 21.511 18.6422 21.3469 19.0641C21.1313 19.6219 20.8687 20.025 20.4515 20.4422C20.0297 20.864 19.6313 21.1219 19.0735 21.3375C18.6516 21.5015 18.0141 21.6985 16.8469 21.75C15.5813 21.8062 15.2015 21.8203 12 21.8203C8.79375 21.8203 8.41405 21.8062 7.15315 21.75C5.98125 21.6985 5.34845 21.5015 4.92657 21.3375C4.36875 21.1219 3.96563 20.8594 3.54844 20.4422C3.12656 20.0203 2.86875 19.6219 2.65313 19.0641C2.48907 18.6422 2.29219 18.0047 2.24062 16.8375C2.18437 15.5719 2.17032 15.1922 2.17032 11.9907C2.17032 8.7844 2.18437 8.4047 2.24062 7.14375C2.29219 5.97185 2.48907 5.33905 2.65313 4.91719C2.86875 4.35938 3.13125 3.95625 3.54844 3.53906C3.97031 3.11719 4.36875 2.85938 4.92657 2.64375C5.34845 2.47969 5.98595 2.28281 7.15315 2.23125C8.41405 2.175 8.79375 2.16093 12 2.16093ZM12 0C8.7422 0 8.3344 0.0140625 7.0547 0.0703125C5.7797 0.126563 4.90313 0.332813 4.14375 0.628125C3.35156 0.9375 2.68125 1.34531 2.01562 2.01562C1.34531 2.68125 0.9375 3.35156 0.628125 4.13906C0.332813 4.90312 0.126563 5.775 0.0703125 7.05C0.0140625 8.33435 0 8.7422 0 12C0 15.2578 0.0140625 15.6656 0.0703125 16.9453C0.126563 18.2203 0.332813 19.0969 0.628125 19.8563C0.9375 20.6485 1.34531 21.3188 2.01562 21.9844C2.68125 22.65 3.35156 23.0625 4.13906 23.3672C4.90312 23.6625 5.775 23.8687 7.05 23.925C8.3297 23.9812 8.7375 23.9953 11.9953 23.9953C15.2531 23.9953 15.661 23.9812 16.9407 23.925C18.2157 23.8687 19.0922 23.6625 19.8515 23.3672C20.639 23.0625 21.3094 22.65 21.975 21.9844C22.6406 21.3188 23.0532 20.6485 23.3578 19.861C23.6531 19.0969 23.8594 18.225 23.9156 16.95C23.9719 15.6703 23.986 15.2625 23.986 12.0047C23.986 8.7469 23.9719 8.33905 23.9156 7.0594C23.8594 5.7844 23.6531 4.90781 23.3578 4.14844C23.0625 3.35156 22.6547 2.68125 21.9844 2.01562C21.3188 1.35 20.6485 0.9375 19.861 0.63281C19.0969 0.3375 18.225 0.13125 16.95 0.075C15.6657 0.0140625 15.2578 0 12 0Z" fill="#191919"/>
<path d="M12 5.83619C8.59689 5.83619 5.83594 8.59715 5.83594 12.0002C5.83594 15.4033 8.59689 18.1643 12 18.1643C15.4031 18.1643 18.164 15.4033 18.164 12.0002C18.164 8.59715 15.4031 5.83619 12 5.83619ZM12 15.9987C9.79219 15.9987 8.00154 14.208 8.00154 12.0002C8.00154 9.79245 9.79219 8.00179 12 8.00179C14.2078 8.00179 15.9984 9.79245 15.9984 12.0002C15.9984 14.208 14.2078 15.9987 12 15.9987ZM19.8468 5.5924C19.8468 6.38925 19.2 7.03145 18.4078 7.03145C17.6109 7.03145 16.9687 6.3846 16.9687 5.5924C16.9687 4.79551 17.6156 4.15332 18.4078 4.15332C19.2 4.15332 19.8468 4.8002 19.8468 5.5924Z" fill="#191919"/>
</g>
</g>
<defs>
<clipPath id="clip0_180_688">
<rect width="24" height="24" fill="white"/>
</clipPath>
</defs>
</svg>
