<svg width="48" height="45" viewBox="0 0 48 45" fill="none" xmlns="http://www.w3.org/2000/svg">
<g clip-path="url(#clip0_180_921)">
<path d="M45.5671 0.0478516L26.8739 14.0851L30.3314 5.80307L45.5671 0.0478516Z" fill="#E2761B" stroke="#E2761B" stroke-linecap="round" stroke-linejoin="round"/>
<path d="M2.41406 0.0478516L20.957 14.218L17.6686 5.80307L2.41406 0.0478516Z" fill="#E4761B" stroke="#E4761B" stroke-linecap="round" stroke-linejoin="round"/>
<path d="M38.841 32.5869L33.8627 40.2994L44.5151 43.2621L47.5775 32.758L38.841 32.5869Z" fill="#E4761B" stroke="#E4761B" stroke-linecap="round" stroke-linejoin="round"/>
<path d="M0.441406 32.758L3.48494 43.2621L14.1373 40.2994L9.15897 32.5869L0.441406 32.758Z" fill="#E4761B" stroke="#E4761B" stroke-linecap="round" stroke-linejoin="round"/>
<path d="M13.5361 19.5559L10.5673 24.0964L21.144 24.5714L20.7688 13.0791L13.5361 19.5559Z" fill="#E4761B" stroke="#E4761B" stroke-linecap="round" stroke-linejoin="round"/>
<path d="M34.4449 19.5559L27.1187 12.9463L26.8739 24.5714L37.4327 24.0964L34.4449 19.5559Z" fill="#E4761B" stroke="#E4761B" stroke-linecap="round" stroke-linejoin="round"/>
<path d="M14.1373 40.2989L20.4872 37.1642L15.0012 32.833L14.1373 40.2989Z" fill="#E4761B" stroke="#E4761B" stroke-linecap="round" stroke-linejoin="round"/>
<path d="M27.4939 37.1642L33.8626 40.2989L32.9798 32.833L27.4939 37.1642Z" fill="#E4761B" stroke="#E4761B" stroke-linecap="round" stroke-linejoin="round"/>
<path d="M33.8626 40.2988L27.4939 37.1641L28.0015 41.3624L27.9448 43.1286L33.8626 40.2988Z" fill="#D7C1B3" stroke="#D7C1B3" stroke-linecap="round" stroke-linejoin="round"/>
<path d="M14.1373 40.2988L20.0552 43.1286L20.0174 41.3624L20.4872 37.1641L14.1373 40.2988Z" fill="#D7C1B3" stroke="#D7C1B3" stroke-linecap="round" stroke-linejoin="round"/>
<path d="M20.1488 30.0606L14.851 28.4837L18.5892 26.7549L20.1488 30.0606Z" fill="#233447" stroke="#233447" stroke-linecap="round" stroke-linejoin="round"/>
<path d="M27.8323 30.0606L29.3919 26.7549L33.149 28.4837L27.8323 30.0606Z" fill="#233447" stroke="#233447" stroke-linecap="round" stroke-linejoin="round"/>
<path d="M14.1373 40.2994L15.039 32.5869L9.15894 32.758L14.1373 40.2994Z" fill="#CD6116" stroke="#CD6116" stroke-linecap="round" stroke-linejoin="round"/>
<path d="M32.9609 32.5869L33.8627 40.2994L38.841 32.758L32.9609 32.5869Z" fill="#CD6116" stroke="#CD6116" stroke-linecap="round" stroke-linejoin="round"/>
<path d="M37.4327 24.0957L26.8739 24.5707L27.8512 30.0602L29.4108 26.7545L33.168 28.4833L37.4327 24.0957Z" fill="#CD6116" stroke="#CD6116" stroke-linecap="round" stroke-linejoin="round"/>
<path d="M14.8509 28.4833L18.6081 26.7545L20.1487 30.0602L21.144 24.5707L10.5673 24.0957L14.8509 28.4833Z" fill="#CD6116" stroke="#CD6116" stroke-linecap="round" stroke-linejoin="round"/>
<path d="M10.5673 24.0957L15.0012 32.8327L14.8509 28.4833L10.5673 24.0957Z" fill="#E4751F" stroke="#E4751F" stroke-linecap="round" stroke-linejoin="round"/>
<path d="M33.168 28.4833L32.9799 32.8327L37.4327 24.0957L33.168 28.4833Z" fill="#E4751F" stroke="#E4751F" stroke-linecap="round" stroke-linejoin="round"/>
<path d="M21.1441 24.5713L20.1488 30.0608L21.3889 36.5376L21.6706 28.0089L21.1441 24.5713Z" fill="#E4751F" stroke="#E4751F" stroke-linecap="round" stroke-linejoin="round"/>
<path d="M26.8738 24.5713L26.3672 27.9898L26.5921 36.5376L27.8511 30.0608L26.8738 24.5713Z" fill="#E4751F" stroke="#E4751F" stroke-linecap="round" stroke-linejoin="round"/>
<path d="M27.8512 30.0603L26.5922 36.5371L27.4939 37.164L32.9798 32.8328L33.1679 28.4834L27.8512 30.0603Z" fill="#F6851B" stroke="#F6851B" stroke-linecap="round" stroke-linejoin="round"/>
<path d="M14.851 28.4834L15.0012 32.8328L20.4872 37.164L21.3889 36.5371L20.1488 30.0603L14.851 28.4834Z" fill="#F6851B" stroke="#F6851B" stroke-linecap="round" stroke-linejoin="round"/>
<path d="M27.9448 43.1286L28.0015 41.3625L27.5317 40.9439H20.4494L20.0174 41.3625L20.0552 43.1286L14.1373 40.2988L16.2035 42.0076L20.3927 44.9521H27.5884L31.7965 42.0076L33.8627 40.2988L27.9448 43.1286Z" fill="#C0AD9E" stroke="#C0AD9E" stroke-linecap="round" stroke-linejoin="round"/>
<path d="M27.494 37.164L26.5923 36.5371H21.3889L20.4872 37.164L20.0175 41.3624L20.4494 40.9438H27.5318L28.0015 41.3624L27.494 37.164Z" fill="#161616" stroke="#161616" stroke-linecap="round" stroke-linejoin="round"/>
<path d="M46.3563 14.9969L47.9527 7.24713L45.567 0.0478516L27.4939 13.6102L34.4449 19.5556L44.2702 22.4618L46.4498 19.8977L45.5103 19.2144L47.0132 17.8277L45.8487 16.9159L47.3516 15.7567L46.3563 14.9969Z" fill="#763D16" stroke="#763D16" stroke-linecap="round" stroke-linejoin="round"/>
<path d="M0.0472412 7.24713L1.64368 14.9969L0.629483 15.7567L2.13235 16.9159L0.986768 17.8277L2.48963 19.2144L1.55011 19.8977L3.71083 22.4618L13.5362 19.5556L20.4872 13.6102L2.41402 0.0478516L0.0472412 7.24713Z" fill="#763D16" stroke="#763D16" stroke-linecap="round" stroke-linejoin="round"/>
<path d="M44.2702 22.4619L34.4449 19.5557L37.4327 24.0962L32.9799 32.8332L38.841 32.7577H47.5775L44.2702 22.4619Z" fill="#F6851B" stroke="#F6851B" stroke-linecap="round" stroke-linejoin="round"/>
<path d="M13.5362 19.5557L3.71085 22.4619L0.441406 32.7577H9.15897L15.0012 32.8332L10.5673 24.0962L13.5362 19.5557Z" fill="#F6851B" stroke="#F6851B" stroke-linecap="round" stroke-linejoin="round"/>
<path d="M26.8739 24.5707L27.4939 13.6098L30.3503 5.80273H17.6686L20.4872 13.6098L21.1441 24.5707L21.37 28.0275L21.3889 36.537H26.5922L26.63 28.0275L26.8739 24.5707Z" fill="#F6851B" stroke="#F6851B" stroke-linecap="round" stroke-linejoin="round"/>
</g>
<defs>
<clipPath id="clip0_180_921">
<rect width="48" height="45" fill="white"/>
</clipPath>
</defs>
</svg>
