<svg width="25" height="27" viewBox="0 0 25 27" fill="none" xmlns="http://www.w3.org/2000/svg">
<path fill-rule="evenodd" clip-rule="evenodd" d="M7.2391 5.68648C7.04029 5.28108 6.86067 4.87525 6.70021 4.46368C6.45929 3.84638 6.30229 3.19887 6.09541 2.57145C6.00743 2.30534 5.76717 1.61478 5.75018 1.51023C5.60678 0.59777 6.27512 0.252931 6.47515 0.16737C6.57109 0.123189 7.56596 -0.297772 8.12727 0.777503C8.81448 2.09196 9.31945 3.47101 9.6322 4.87591C10.2049 5.97911 10.9359 7.03 11.7574 7.934C15.0255 11.5291 18.9973 10.792 23.1578 9.51341C23.7965 9.31308 24.479 9.65819 24.7021 10.286C24.9267 10.9186 24.6145 11.6168 23.9929 11.8642C21.7279 12.7829 18.1465 15.8831 17.2948 18.2552C17.1168 18.7517 17.235 19.7865 17.2913 20.8188C17.3678 22.2522 17.3791 23.6893 17.1162 24.3729C17.0776 24.4783 16.5588 25.5929 16.3642 25.7916C15.8954 26.265 15.3943 26.2209 15.0912 26.1335C14.7881 26.0462 14.4043 25.8106 14.131 25.3125C13.8453 24.792 13.6077 23.6205 13.5162 23.3815C13.1844 22.5146 12.4895 20.8267 11.6827 19.4382C11.248 18.6906 10.819 18.0092 10.3649 17.7423C8.68402 16.7546 6.7059 17.5619 5.05666 18.2975C4.86671 18.38 4.67818 18.4674 4.4887 18.5498C3.85133 18.9637 3.15509 19.3377 2.39814 19.6619C1.25553 20.1529 0.737248 19.1223 0.705315 19.0535C0.636213 18.9018 0.311864 18.111 1.10733 17.5196C1.19469 17.4571 1.86599 17.0853 2.12414 16.9407C2.48402 16.7398 2.85392 16.5568 3.22669 16.3781C6.89514 13.9201 8.0412 9.73812 7.2391 5.68648ZM9.92223 9.63302C12.3861 12.3347 15.1551 13.1712 18.1052 13.0457L18.1047 13.0458C16.6575 14.4521 15.4321 16.0376 14.9409 17.4102C14.7541 17.9302 14.7216 18.874 14.7487 19.915C14.3416 19.0601 13.868 18.1622 13.3749 17.4216C12.813 16.5761 12.1994 15.9183 11.6338 15.5854C10.5424 14.9443 9.35695 14.7592 8.16742 14.8467C9.15223 13.2648 9.7269 11.4865 9.92223 9.63302Z" fill="#CD1A1A"/>
</svg>
