<svg width="24" height="24" viewBox="0 0 24 24" fill="none" xmlns="http://www.w3.org/2000/svg">
<g clip-path="url(#clip0_180_679)">
<mask id="mask0_180_679" style="mask-type:luminance" maskUnits="userSpaceOnUse" x="0" y="0" width="24" height="24">
<path d="M24 0H0V24H24V0Z" fill="white"/>
</mask>
<g mask="url(#mask0_180_679)">
<path fill-rule="evenodd" clip-rule="evenodd" d="M24 12C24 18.6274 18.6274 24 12 24C5.3726 24 0 18.6274 0 12C0 5.3726 5.3726 0 12 0C18.6274 0 24 5.3726 24 12ZM12.43 8.85895C11.2628 9.3444 8.93015 10.3492 5.4319 11.8733C4.86383 12.0992 4.56625 12.3202 4.53917 12.5363C4.49338 12.9015 4.95071 13.0453 5.57345 13.2411C5.6582 13.2678 5.74595 13.2954 5.83595 13.3246C6.44865 13.5238 7.27285 13.7568 7.7013 13.7661C8.08995 13.7745 8.52375 13.6142 9.00265 13.2853C12.2712 11.079 13.9584 9.9638 14.0643 9.93975C14.139 9.9228 14.2426 9.9015 14.3127 9.96385C14.3829 10.0262 14.376 10.1443 14.3686 10.176C14.3233 10.3691 12.5281 12.0381 11.5991 12.9018C11.3095 13.1711 11.1041 13.362 11.0621 13.4057C10.968 13.5034 10.8721 13.5957 10.78 13.6846C10.2107 14.2333 9.7839 14.6448 10.8036 15.3168C11.2937 15.6397 11.6858 15.9067 12.077 16.1731C12.5042 16.4641 12.9303 16.7542 13.4816 17.1157C13.6221 17.2078 13.7563 17.3034 13.8869 17.3965C14.3841 17.7509 14.8307 18.0694 15.3826 18.0187C15.7032 17.9891 16.0345 17.6876 16.2027 16.7883C16.6002 14.6631 17.3817 10.0584 17.5622 8.16095C17.5781 7.99475 17.5582 7.78195 17.5422 7.68855C17.5261 7.5952 17.4928 7.4621 17.3713 7.3636C17.2276 7.24695 17.0056 7.22235 16.9063 7.2241C16.455 7.23205 15.7626 7.4728 12.43 8.85895Z" fill="#191919"/>
</g>
</g>
<defs>
<clipPath id="clip0_180_679">
<rect width="24" height="24" fill="white"/>
</clipPath>
</defs>
</svg>
